<?xml version="1.0" ?><!DOCTYPE svg  PUBLIC '-//W3C//DTD SVG 1.1//EN'  'http://www.w3.org/Graphics/SVG/1.1/DTD/svg11.dtd'><svg id="Layer_1" style="enable-background:new 0 0 64 64;" version="1.1" viewBox="0 0 64 64" xml:space="preserve" xmlns="http://www.w3.org/2000/svg" xmlns:xlink="http://www.w3.org/1999/xlink" width="25px" height="25px"
fill="#62963b"><style type="text/css" >
	.st0{fill:#282828;}
</style><g><path class="st0" d="M39.7,52.3l-3-22.3c-0.1-0.4-0.3-0.7-0.7-0.8c-0.2-0.1-0.4-0.1-0.5,0l-0.4-2.2c0.2-1.6,1.4-13.4-2.2-18.8    c0,0,0,0,0,0c0,0,0,0,0,0c0-0.1-0.1-0.1-0.2-0.2c0,0-0.1-0.1-0.1-0.1c0,0,0,0,0,0c-0.1-0.1-0.2-0.1-0.4-0.2c0,0-0.1,0-0.1,0    c-0.1,0-0.2,0-0.3,0c-0.1,0-0.3,0.1-0.4,0.1c0,0,0,0,0,0c0,0-0.1,0.1-0.1,0.1c-0.1,0.1-0.1,0.1-0.2,0.2c0,0,0,0,0,0c0,0,0,0,0,0    c-3.7,5.5-2.4,17.3-2.2,18.8l-0.4,2.2c-0.2-0.1-0.4-0.1-0.6,0c-0.4,0.1-0.6,0.4-0.7,0.8l-3,22.3c0,0.3,0.1,0.7,0.4,0.9l3.7,3    c0.2,0.2,0.4,0.2,0.6,0.2c0.1,0,0.3,0,0.4-0.1c0.3-0.1,0.6-0.5,0.6-0.8l1.6-21.1h0.9L34,55.5c0,0.4,0.3,0.7,0.6,0.8    c0.1,0.1,0.3,0.1,0.4,0.1c0.2,0,0.5-0.1,0.6-0.2l3.7-3C39.6,52.9,39.8,52.6,39.7,52.3z M36.1,40.6L35,41.5L34.4,33l0.7-0.7    L36.1,40.6z M33.1,27.1l0.7,3.6c0,0,0,0,0,0L32.6,32c0,0,0,0.1-0.1,0.1V31c0.3-0.2,0.6-0.5,0.6-0.9s-0.2-0.8-0.6-0.9V12.2    c1.6,5.8,0.6,14.5,0.6,14.6C33.1,26.9,33.1,27,33.1,27.1z M31.5,12.2v16.9c-0.3,0.2-0.6,0.5-0.6,0.9s0.2,0.8,0.6,0.9v1.2    c0-0.1-0.1-0.2-0.1-0.2l-1.1-1.2c0,0,0-0.1,0-0.1l0.7-3.6c0-0.1,0-0.2,0-0.3C31,26.7,29.9,18,31.5,12.2z M29,32.3l0.7,0.7L29,41.8    l-1.2-0.9L29,32.3z M28.1,53.4L26.3,52l1.3-10l1.2,1L28.1,53.4z M35.9,53.4l-0.8-10.7l1.2-1L37.7,52L35.9,53.4z"/></g></svg>