<?xml version="1.0" ?><!DOCTYPE svg  PUBLIC '-//W3C//DTD SVG 1.1//EN'  'http://www.w3.org/Graphics/SVG/1.1/DTD/svg11.dtd'><svg id="Layer_1" style="enable-background:new 0 0 64 64;" version="1.1" viewBox="0 0 64 64" xml:space="preserve" xmlns="http://www.w3.org/2000/svg" xmlns:xlink="http://www.w3.org/1999/xlink" width="35px" height="35px" fill="#62963b"><style type="text/css">
	.st0{fill:#282828;}
</style><g><path class="st0" d="M50.6,18.5l-5.5,5c-0.1,0-0.2,0-0.3,0c-0.1-1.7-1.3-3.1-3-3.4c-0.7-2.1-2.6-3.6-4.9-3.6c-1.6,0-3,0.7-4,1.9    c-1.1-0.8-2.4-1.3-3.8-1.3c-2.6,0-4.8,1.5-5.8,3.8c-3,0.2-5.3,2.6-5.5,5.6l-0.1,0c-0.8,0.1-1.5,0.7-1.7,1.5    c-0.2,0.8,0.1,1.7,0.8,2.1l5.3,3.5l-0.8,0.7c-1.3-1.1-3-1.9-4.9-1.9C12.4,32.5,9,35.9,9,40s3.4,7.5,7.5,7.5S24,44.1,24,40    c0-1.5-0.5-3-1.3-4.1l1.2-1l5.2,3.4c0.3,0.2,0.7,0.3,1.1,0.3c0.1,0,0.2,0,0.3,0l4.7-0.7l4.9,7c0.5,0.8,1.3,1.3,2.3,1.3h0.4    c1.4,0,2.6-1.2,2.6-2.6l-1.3-7.2c0.4-0.3,0.7-0.7,0.8-1.2l1.7-9.2c0.1-0.3,0-0.7-0.1-1l4.7-4.4H55v-2H50.6z M22,40    c0,3-2.5,5.5-5.5,5.5c-3,0-5.5-2.5-5.5-5.5s2.5-5.5,5.5-5.5c1.3,0,2.4,0.4,3.4,1.2l-2,1.7C17.4,37.1,17,37,16.5,37    c-1.7,0-3,1.3-3,3s1.3,3,3,3s3-1.3,3-3c0-0.4-0.1-0.8-0.3-1.2l2-1.6C21.7,38,22,39,22,40z M17.5,40c0,0.6-0.4,1-1,1    c-0.6,0-1-0.4-1-1s0.4-1,1-1C17.1,39,17.5,39.4,17.5,40z M18,28.5l24.8-2.8L38,30.1l-14,2.4L18,28.5L18,28.5z M23.8,22.9    C23.8,22.9,23.8,22.9,23.8,22.9c0.1,0,0.1,0,0.2,0l0.8,0l0.2-0.7c0.6-1.8,2.3-3.1,4.2-3.1c1.3,0,2.5,0.5,3.3,1.5l1,1.2l0.6-1.4    c0.5-1.1,1.6-1.9,2.9-1.9c1.5,0,2.8,1.1,3.1,2.7l0.1,0.9h0.9l0.1,0c0.9,0,1.7,0.8,1.7,1.7l-23,2.6C20.2,24.4,21.8,22.9,23.8,22.9z     M42.8,44.1h-0.4c-0.2,0-0.4-0.1-0.5-0.3l-4.4-6.3l4.8-0.7l1.2,6.8C43.4,43.9,43.2,44.1,42.8,44.1z M43,34.7l-12.8,1.9l-3.8-2.5    L39,32l5.5-5.1L43,34.7z"/></g></svg>